<svg xmlns="http://www.w3.org/2000/svg" xmlns:xlink="http://www.w3.org/1999/xlink" width="816" zoomAndPan="magnify" viewBox="0 0 612 791.999994" height="1056" preserveAspectRatio="xMidYMid meet" version="1.0"><defs><g/><clipPath id="323464ac62"><path d="M 465.527344 360.765625 L 509.160156 360.765625 L 509.160156 404.398438 L 465.527344 404.398438 Z M 465.527344 360.765625 " clip-rule="nonzero"/></clipPath><clipPath id="ec459452ea"><path d="M 487.34375 360.765625 C 475.292969 360.765625 465.527344 370.535156 465.527344 382.582031 C 465.527344 394.628906 475.292969 404.398438 487.34375 404.398438 C 499.390625 404.398438 509.160156 394.628906 509.160156 382.582031 C 509.160156 370.535156 499.390625 360.765625 487.34375 360.765625 Z M 487.34375 360.765625 " clip-rule="nonzero"/></clipPath><clipPath id="9f3e87cf8b"><path d="M 0.527344 0.765625 L 44.160156 0.765625 L 44.160156 44.398438 L 0.527344 44.398438 Z M 0.527344 0.765625 " clip-rule="nonzero"/></clipPath><clipPath id="188b7235af"><path d="M 22.34375 0.765625 C 10.292969 0.765625 0.527344 10.535156 0.527344 22.582031 C 0.527344 34.628906 10.292969 44.398438 22.34375 44.398438 C 34.390625 44.398438 44.160156 34.628906 44.160156 22.582031 C 44.160156 10.535156 34.390625 0.765625 22.34375 0.765625 Z M 22.34375 0.765625 " clip-rule="nonzero"/></clipPath><clipPath id="83672c5237"><rect x="0" width="45" y="0" height="45"/></clipPath><clipPath id="6ac2aa44c4"><rect x="0" width="351" y="0" height="136"/></clipPath></defs><g clip-path="url(#323464ac62)"><g clip-path="url(#ec459452ea)"><g transform="matrix(1, 0, 0, 1, 465, 360)"><g clip-path="url(#83672c5237)"><g clip-path="url(#9f3e87cf8b)"><g clip-path="url(#188b7235af)"><path fill="#000000" d="M 0.527344 0.765625 L 44.160156 0.765625 L 44.160156 44.398438 L 0.527344 44.398438 Z M 0.527344 0.765625 " fill-opacity="1" fill-rule="nonzero"/></g></g></g></g></g></g><g transform="matrix(1, 0, 0, 1, 102, 328)"><g clip-path="url(#6ac2aa44c4)"><g fill="#000000" fill-opacity="1"><g transform="translate(0.841103, 108.404999)"><g><path d="M 32.015625 1.078125 C 27.671875 1.078125 23.757812 0.410156 20.28125 -0.921875 C 16.8125 -2.265625 13.847656 -4.203125 11.390625 -6.734375 C 8.929688 -9.265625 7.050781 -12.375 5.75 -16.0625 C 4.445312 -19.75 3.796875 -23.976562 3.796875 -28.75 C 3.796875 -33.53125 4.445312 -37.765625 5.75 -41.453125 C 7.050781 -45.140625 8.929688 -48.25 11.390625 -50.78125 C 13.847656 -53.3125 16.8125 -55.242188 20.28125 -56.578125 C 23.757812 -57.921875 27.671875 -58.59375 32.015625 -58.59375 C 36.066406 -58.59375 39.609375 -58.03125 42.640625 -56.90625 C 45.679688 -55.789062 48.269531 -54.273438 50.40625 -52.359375 C 52.539062 -50.441406 54.273438 -48.234375 55.609375 -45.734375 C 56.953125 -43.242188 57.945312 -40.660156 58.59375 -37.984375 L 43.40625 -37.984375 C 42.320312 -40.148438 40.910156 -41.863281 39.171875 -43.125 C 37.429688 -44.394531 35.046875 -45.03125 32.015625 -45.03125 C 28.179688 -45.03125 25.050781 -43.671875 22.625 -40.953125 C 20.195312 -38.242188 18.984375 -34.175781 18.984375 -28.75 C 18.984375 -23.332031 20.195312 -19.265625 22.625 -16.546875 C 25.050781 -13.835938 28.179688 -12.484375 32.015625 -12.484375 C 35.046875 -12.484375 37.429688 -13.113281 39.171875 -14.375 C 40.910156 -15.644531 42.320312 -17.363281 43.40625 -19.53125 L 58.59375 -19.53125 C 57.945312 -16.78125 56.953125 -14.175781 55.609375 -11.71875 C 54.273438 -9.257812 52.539062 -7.070312 50.40625 -5.15625 C 48.269531 -3.238281 45.679688 -1.71875 42.640625 -0.59375 C 39.609375 0.519531 36.066406 1.078125 32.015625 1.078125 Z M 32.015625 1.078125 "/></g></g></g><g fill="#000000" fill-opacity="1"><g transform="translate(58.350921, 108.404999)"><g><path d="M 23.328125 1.078125 C 20.222656 1.078125 17.421875 0.628906 14.921875 -0.265625 C 12.421875 -1.171875 10.300781 -2.421875 8.5625 -4.015625 C 6.832031 -5.609375 5.515625 -7.488281 4.609375 -9.65625 C 3.703125 -11.820312 3.25 -14.207031 3.25 -16.8125 C 3.25 -19.414062 3.71875 -21.800781 4.65625 -23.96875 C 5.601562 -26.144531 7.015625 -28.03125 8.890625 -29.625 C 10.773438 -31.21875 13.09375 -32.460938 15.84375 -33.359375 C 18.59375 -34.265625 21.8125 -34.71875 25.5 -34.71875 L 39.0625 -34.71875 L 39.0625 -37.4375 C 39.0625 -40.1875 38.191406 -42.226562 36.453125 -43.5625 C 34.722656 -44.90625 32.335938 -45.578125 29.296875 -45.578125 C 27.128906 -45.578125 25.285156 -45.101562 23.765625 -44.15625 C 22.242188 -43.21875 21.195312 -42.0625 20.625 -40.6875 L 5.421875 -40.6875 C 5.929688 -43.007812 6.816406 -45.234375 8.078125 -47.359375 C 9.347656 -49.492188 10.976562 -51.394531 12.96875 -53.0625 C 14.957031 -54.726562 17.34375 -56.066406 20.125 -57.078125 C 22.914062 -58.085938 26.15625 -58.59375 29.84375 -58.59375 C 37.507812 -58.59375 43.492188 -56.75 47.796875 -53.0625 C 52.109375 -49.375 54.265625 -43.984375 54.265625 -36.890625 L 54.265625 0 L 41.234375 0 L 39.609375 -6.515625 L 39.0625 -6.515625 C 38.488281 -5.710938 37.765625 -4.859375 36.890625 -3.953125 C 36.023438 -3.054688 34.941406 -2.226562 33.640625 -1.46875 C 32.335938 -0.707031 30.835938 -0.09375 29.140625 0.375 C 27.441406 0.84375 25.503906 1.078125 23.328125 1.078125 Z M 27.125 -11.390625 C 30.675781 -11.390625 33.550781 -12.382812 35.75 -14.375 C 37.957031 -16.363281 39.0625 -18.988281 39.0625 -22.25 L 39.0625 -23.875 L 26.046875 -23.875 C 23.296875 -23.875 21.34375 -23.296875 20.1875 -22.140625 C 19.03125 -20.984375 18.453125 -19.570312 18.453125 -17.90625 C 18.453125 -16.019531 19.140625 -14.460938 20.515625 -13.234375 C 21.890625 -12.003906 24.09375 -11.390625 27.125 -11.390625 Z M 27.125 -11.390625 "/></g></g></g><g fill="#000000" fill-opacity="1"><g transform="translate(114.233118, 108.404999)"><g><path d="M 7.046875 -75.96875 L 22.25 -75.96875 L 22.25 0 L 7.046875 0 Z M 7.046875 -75.96875 "/></g></g></g><g fill="#000000" fill-opacity="1"><g transform="translate(139.190168, 108.404999)"><g><path d="M 0 -57.515625 L 16.28125 -57.515625 L 29.296875 -15.734375 L 29.84375 -15.734375 L 42.859375 -57.515625 L 59.140625 -57.515625 L 39.0625 0 L 20.078125 0 Z M 0 -57.515625 "/></g></g></g><g fill="#000000" fill-opacity="1"><g transform="translate(193.987256, 108.404999)"><g><path d="M 23.328125 1.078125 C 20.222656 1.078125 17.421875 0.628906 14.921875 -0.265625 C 12.421875 -1.171875 10.300781 -2.421875 8.5625 -4.015625 C 6.832031 -5.609375 5.515625 -7.488281 4.609375 -9.65625 C 3.703125 -11.820312 3.25 -14.207031 3.25 -16.8125 C 3.25 -19.414062 3.71875 -21.800781 4.65625 -23.96875 C 5.601562 -26.144531 7.015625 -28.03125 8.890625 -29.625 C 10.773438 -31.21875 13.09375 -32.460938 15.84375 -33.359375 C 18.59375 -34.265625 21.8125 -34.71875 25.5 -34.71875 L 39.0625 -34.71875 L 39.0625 -37.4375 C 39.0625 -40.1875 38.191406 -42.226562 36.453125 -43.5625 C 34.722656 -44.90625 32.335938 -45.578125 29.296875 -45.578125 C 27.128906 -45.578125 25.285156 -45.101562 23.765625 -44.15625 C 22.242188 -43.21875 21.195312 -42.0625 20.625 -40.6875 L 5.421875 -40.6875 C 5.929688 -43.007812 6.816406 -45.234375 8.078125 -47.359375 C 9.347656 -49.492188 10.976562 -51.394531 12.96875 -53.0625 C 14.957031 -54.726562 17.34375 -56.066406 20.125 -57.078125 C 22.914062 -58.085938 26.15625 -58.59375 29.84375 -58.59375 C 37.507812 -58.59375 43.492188 -56.75 47.796875 -53.0625 C 52.109375 -49.375 54.265625 -43.984375 54.265625 -36.890625 L 54.265625 0 L 41.234375 0 L 39.609375 -6.515625 L 39.0625 -6.515625 C 38.488281 -5.710938 37.765625 -4.859375 36.890625 -3.953125 C 36.023438 -3.054688 34.941406 -2.226562 33.640625 -1.46875 C 32.335938 -0.707031 30.835938 -0.09375 29.140625 0.375 C 27.441406 0.84375 25.503906 1.078125 23.328125 1.078125 Z M 27.125 -11.390625 C 30.675781 -11.390625 33.550781 -12.382812 35.75 -14.375 C 37.957031 -16.363281 39.0625 -18.988281 39.0625 -22.25 L 39.0625 -23.875 L 26.046875 -23.875 C 23.296875 -23.875 21.34375 -23.296875 20.1875 -22.140625 C 19.03125 -20.984375 18.453125 -19.570312 18.453125 -17.90625 C 18.453125 -16.019531 19.140625 -14.460938 20.515625 -13.234375 C 21.890625 -12.003906 24.09375 -11.390625 27.125 -11.390625 Z M 27.125 -11.390625 "/></g></g></g><g fill="#000000" fill-opacity="1"><g transform="translate(249.869448, 108.404999)"><g><path d="M 6.515625 -57.515625 L 19.53125 -57.515625 L 21.15625 -51 L 21.703125 -51 C 23.585938 -53.457031 25.832031 -55.335938 28.4375 -56.640625 C 31.039062 -57.941406 33.859375 -58.59375 36.890625 -58.59375 C 40.003906 -58.59375 42.863281 -58.066406 45.46875 -57.015625 C 48.070312 -55.972656 50.296875 -54.4375 52.140625 -52.40625 C 53.984375 -50.382812 55.429688 -47.941406 56.484375 -45.078125 C 57.535156 -42.222656 58.0625 -38.953125 58.0625 -35.265625 L 58.0625 0 L 42.859375 0 L 42.859375 -33.09375 C 42.859375 -36.925781 41.953125 -39.875 40.140625 -41.9375 C 38.335938 -44 35.8125 -45.03125 32.5625 -45.03125 C 29.300781 -45.03125 26.675781 -43.925781 24.6875 -41.71875 C 22.695312 -39.519531 21.703125 -36.644531 21.703125 -33.09375 L 21.703125 0 L 6.515625 0 Z M 6.515625 -57.515625 "/></g></g></g><g fill="#000000" fill-opacity="1"><g transform="translate(309.549454, 108.404999)"><g><path d="M 29.296875 0 C 23.296875 0 18.8125 -1.445312 15.84375 -4.34375 C 12.875 -7.238281 11.390625 -11.394531 11.390625 -16.8125 L 11.390625 -43.40625 L 2.171875 -43.40625 L 2.171875 -57.515625 L 11.390625 -57.515625 L 13.5625 -72.703125 L 26.59375 -72.703125 L 26.59375 -57.515625 L 40.15625 -57.515625 L 40.15625 -43.40625 L 26.59375 -43.40625 L 26.59375 -19.53125 C 26.59375 -17.863281 27.078125 -16.539062 28.046875 -15.5625 C 29.023438 -14.59375 30.347656 -14.109375 32.015625 -14.109375 L 40.15625 -14.109375 L 40.15625 0 Z M 29.296875 0 "/></g></g></g></g></g></svg>